/* XPM */
static char *coin[] = {
/* columns rows colors chars-per-pixel */
"64 64 228 2 ",
"   c None",
".  c #554938",
"X  c #564B38",
"o  c #69553C",
"O  c #48454B",
"+  c #534C4E",
"@  c #4E4B52",
"#  c #494750",
"$  c #524E54",
"%  c #524E59",
"&  c #555255",
"*  c #55525A",
"=  c #5A555C",
"-  c #5D595E",
";  c #5B5356",
":  c #5E5442",
">  c #625443",
",  c #6B5A44",
"<  c #6B5B4A",
"1  c #675847",
"2  c #715D44",
"3  c #745F4B",
"4  c #635B5D",
"5  c #6A5E5A",
"6  c #6E614B",
"7  c #756244",
"8  c #74634A",
"9  c #79654A",
"0  c #7D6A4C",
"q  c #7B6747",
"w  c #6A625A",
"e  c #746454",
"r  c #7C6954",
"t  c #786859",
"y  c #7E715B",
"u  c #5E5A62",
"i  c #635D63",
"p  c #656165",
"a  c #6B6364",
"s  c #656269",
"d  c #6B656B",
"f  c #6D686D",
"g  c #6D6B66",
"h  c #736B6D",
"j  c #796E6D",
"k  c #746865",
"l  c #7C726D",
"z  c #7D7166",
"x  c #6E6B72",
"c  c #646671",
"v  c #736D73",
"b  c #7A6F72",
"n  c #757174",
"m  c #7B7374",
"M  c #75727B",
"N  c #7B757B",
"B  c #7D797C",
"V  c #7D7A74",
"C  c #836C4D",
"Z  c #88714B",
"A  c #836D52",
"S  c #826E5A",
"D  c #847255",
"F  c #8A7555",
"G  c #8C7955",
"H  c #84735B",
"J  c #8A755B",
"K  c #8C7B5C",
"L  c #877A57",
"P  c #927D5C",
"I  c #937B56",
"U  c #857464",
"Y  c #8C7B63",
"T  c #82746C",
"R  c #8C7B6A",
"E  c #897767",
"W  c #927D64",
"Q  c #927E6B",
"!  c #827B7B",
"~  c #867975",
"^  c #8E825F",
"/  c #94825E",
"(  c #98835B",
")  c #A08A5E",
"_  c #8E8165",
"`  c #948263",
"'  c #9A8564",
"]  c #9C8A65",
"[  c #94826B",
"{  c #9B856C",
"}  c #9C8B6B",
"|  c #968867",
" . c #8A817D",
".. c #8A8277",
"X. c #938473",
"o. c #9A8572",
"O. c #9C8A73",
"+. c #93857B",
"@. c #98897B",
"#. c #9E9075",
"$. c #9E916B",
"%. c #A28C64",
"&. c #A28D6C",
"*. c #A68D6E",
"=. c #A4936C",
"-. c #A9946D",
";. c #AA9A6E",
":. c #A3946A",
">. c #A18C73",
",. c #A38C7A",
"<. c #A98D79",
"1. c #A59472",
"2. c #AA9573",
"3. c #AC9B74",
"4. c #A3947C",
"5. c #AA937C",
"6. c #AD9C7A",
"7. c #A69976",
"8. c #B29D75",
"9. c #B29D7A",
"0. c #B89F7C",
"q. c #AFA175",
"w. c #AFA07C",
"e. c #B3A176",
"r. c #B4A27C",
"t. c #BAA57D",
"y. c #BCAA7E",
"u. c #B7A77C",
"i. c #C1AB7D",
"p. c #7D7A83",
"a. c #7A7884",
"s. c #837D83",
"d. c #887E82",
"f. c #837F8A",
"g. c #8C7F88",
"h. c #868185",
"j. c #8B8383",
"k. c #85828A",
"l. c #8B848A",
"z. c #8D898E",
"x. c #928784",
"c. c #948985",
"v. c #90878B",
"b. c #948C8B",
"n. c #998E8D",
"m. c #9C8C83",
"M. c #96918E",
"N. c #99918E",
"B. c #8E8A92",
"V. c #858190",
"C. c #938E92",
"Z. c #978F96",
"A. c #969192",
"S. c #9C9493",
"D. c #9C9699",
"F. c #9D9999",
"G. c #A59382",
"H. c #AC9C84",
"J. c #AC9D8B",
"K. c #AB9582",
"L. c #B19C86",
"P. c #A29996",
"I. c #A49C9B",
"U. c #A99F9D",
"Y. c #A2979A",
"T. c #A58E80",
"R. c #AFA287",
"E. c #B3A483",
"W. c #B9A482",
"Q. c #B6AA84",
"!. c #BCAB84",
"~. c #BAAB8C",
"^. c #B6A88A",
"/. c #BEB28B",
"(. c #A6A19D",
"). c #AAA29E",
"_. c #AEA394",
"`. c #B9AC95",
"'. c #BEB593",
"]. c #A89FA0",
"[. c #A7A2A2",
"{. c #ABA4A3",
"}. c #AEA9A5",
"|. c #AEA9A9",
" X c #B1AAA6",
".X c #B4ACAB",
"XX c #B7ACAA",
"oX c #B5B0AD",
"OX c #BAB2AE",
"+X c #BAB4B2",
"@X c #BDB8B5",
"#X c #BBB6B7",
"$X c #B4AEB1",
"%X c #C2AD83",
"&X c #C4B38A",
"*X c #CBBB8D",
"=X c #C6B486",
"-X c #D1BE8F",
";X c #C3B593",
":X c #CCBC92",
">X c #C7BC98",
",X c #D0BB93",
"<X c #C2BDBB",
"1X c #C4BCB8",
"2X c #CBC29C",
"3X c #CBC097",
"4X c #D5C69A",
"5X c #D9D09E",
"6X c #CDC5A5",
"7X c #D5CCA4",
"8X c #D7CCA7",
"9X c #DCD1A4",
"0X c #DCD4AC",
"qX c #C6C1BD",
"wX c #C9C2BD",
"eX c #D8D3B3",
"rX c #E2D8AA",
"tX c #E3DCB4",
"yX c #E6DEB8",
"uX c #E7E1BA",
"iX c #C1BCC0",
"pX c #C7C3C1",
"aX c #CBC4C3",
"sX c #CDCAC8",
"dX c #D1CBCA",
"fX c #D5D2CE",
"gX c #DBD7D5",
"hX c #EBE5C4",
/* pixels */
"                                                                                                                                ",
"                                                                                                                                ",
"                                                                                                                                ",
"                                                  o.W W W W W { W W K W W W Y                                                   ",
"                                            [ J K { 7.^.>X>X>X6X6X6X'.'.~.1.{ { { ,.                                            ",
"                                      O.` J | E.2XeXhXhXuX0X9X4X8X0X0XyXhXtX9X2X/.6.>.{ >.                                      ",
"                                  O.Y | E.6XyXtX5X*X%Xu.3.%.G ] ` ] 3.3.u.%X-XrXtXrX>X9.' >.,.                                  ",
"                              4.O.} E.8XuX9X:X!.e.;.;.3.3.u.3.7.3.Q.3.3.2.6.-.r.!.*X9XyX8XE.>.<.                                ",
"                            >.' R.eXuX9X*Xt.9.E.w.w.r.r.w.r.u.'.Q.3.3.q.q.3.2.6.6.8.y.:X9XtX2X1.{ o.                            ",
"                          } ` `.hXyX:X8.q.r.!.E.E.E.r.r.3.9./.;X'.Q.3.7.3.6.6.6.7.3.6.3.t.,XrX9XE.} o.                          ",
"                      J.{ P 2XhX4Xy.8.e.q.q.e.E.E.O.D 0 D _ } } } =.| J H } 7.r.u.3.3.r.r.8.i.4XtX;XO.@.                        ",
"                    G.{ / >XyX:Xe.r.r.q.q.3.} P / ` 1.E.E.R.J.K.H.E.^.E.E.9.=./ ` 1.q.3.9.3.9.r.*XrX2XO.[                       ",
"                    { P 2XtX&X8.8.r.u.3.:./ ` 1.w.K.@.R l h f a d l l T X.4.L.Q.w.] ( =.6.6.9.6.8.=XrX2X&.o.                    ",
"                  { ` 6XtX*X8.3.8.u.9.&.G } ~._.+.j f f a 4 a a k n v v h j T +.R.;Xe.] } 3.r.r.9.8.=X5X>X>.>.                  ",
"                O.P 2XtX:Xe.3.r.e.w.P ` ~.R. .! v v v f a a ! N.S.a i s h m s.l.l.x.^./.=.} E.r.9.8.e.=X9X;X} @.                ",
"              K.' ~.uX:Xu.e.e.r.2.P 3.;XN.m v N N v f i 4 k j.{.P.! 4 i d n s.z.l.l.j.#.;X6.} 3.e.9.r.t.*X0XE.>.                ",
"            `.&.1.tX4Xy.r.r.u.-.P !.`.x.m B B m v x s p m h.}.+X+XS.d p = f v l.B.C.z.j.+.`.E.' 2.9.3.9.e.4X8Xr.5.              ",
"            5.{ 6X9X%Xr.r.9.8.( E.`. .! s.l.B n x v b.c. X+X{.).F..X{.Y.b.s.v n p.C.C.l.j.+.~.E.' 2.8.6.8.t.9X2X5.T.            ",
"          J.W E.tX&Xe.e.8.8.( 3.`.! B p.p.p.v f v j c.}.S. .b.U.I.n. .I.{.s.N f M a.B.Y.z.s.c.~.r.] 6.8.8.3.&X7XE.>.            ",
"          5.} 8X3X9.e.9.9.%.] '.j.s.h.M M x m l.c.c.).@X+X}.M.M.S.[.+XpX#XZ.n.! k.M i i j.B.l.@./.=.&.3.3.-.3.,X3X>.,.          ",
"        L.&.~.0X-.( -.3.-.( ;XS.s.s.B x s x ! c.n.).j.}.+XI.S.n.b.S.}.+Xv.D.+Xn.b w h B a j.B.l.4.y.] ;.3.3.*.t.7XE.O.          ",
"        K.' 7X:X-.%.] 9.] E._.d.k.B d n 4 a ! S.+XS.v n C.+XaXsXsXqX|.! v N [.pXc.S.}.I.j.C.Z.B. .E.u.] 9.=.*.u.4X>X{ G.        ",
"        <.7.9Xe.e.y.!.8.) `.l.l.B.p.B ! c.).{.pX[.B v B [.qX<X<XaXgXsXI.B p.k.$X<X.X.X(.I.B B.B.h.X.!.&.2.~.E.=.y.4X7.o.        ",
"      L.` /.4X%.] 3.!.) r.P.l.z.l.l.j.P..X).wX.Xl.s.! qXqXS.n.c.S.n.{.dX.Xv v B iX1X+X<X(.l.B.B.z.h.R.3.} r.3./ &.*XQ.Q         ",
"      5.` 4X*X-.6.6.r.) `.j.s.l.k.[.[.U.I..X1Xj.m m I..Xx.M.(.}.).N.! v.{.N.m j.n.aXN.Y.s.C.l.V.z.h.+.!.' 6.u.!.!.&X:X} T.      ",
"      { ] 4X%Xt.!.;X2.-.J.B h.f.p.F..XI.].OX X(.dXOX XS..X1X.XU.U.OX@XY.S.).@XfX! j.n.m v v f.a.B.l.! !.%.=.t.9.1.9.:X1.@.      ",
"      { 2.-X:.=.] 6.-.W.n.s.l.f.p.D..XS.d.{.).wX<X1X X{..XXXU.P.P.).}.oX). X{.<XaXm v h v m l.k.k.l.s.G.=.} r.] ' 9.:X7.[       ",
"      ` 9.=X8.9.t.t.%.H.d.p.f.a.M C.{.].{.S.I.oXn.).OXOX X XOX.XOX X(..XoX XP.S.aXfX[..X[.l.p.p.p.k.h.c.9.] u.&X~.!.:X6.o.      ",
"    G.{ r.%X8.!.!.9.*.H.N p.p.a.v z.D.n.qXpXdXI.n.OX1X.X{..XP.! x.{..X[..X XS.j.C.qXfXI.I.m s p.N l.k. .6./ 3.3.1.6.%XW.O.      ",
"    4.K 9.t.%.] -.2.' m.B p.a.M x s.d..X<XgX<Xb.n.). X+X.X}.P.N.I.{.}.oX+X}.P.! s.C.<XwX.Xc.i N M p.k.d.5./ =.*.' *.t.r.W       ",
"    4.` 9.t.t.%Xr.2.' n.s.p.a.x v d j.<XfX+Xz.v.].OXOX+X}.P.). X.X[.S.I.}..XoXM.s.s.! c.I.j f d M p.s.s.,.' =.!.E.6.W.r.Y X.    ",
"    ,.` 9.t.y.y.!.=.Y j.B a.a.M v B v.b.P.j.f.v.oX1X.X.X+X.X).+X@X[.+X@X.X}.+X[.z.v 4 4 i h h.p M M p.! O.&.1.r.!.9.r.9.W o.    ",
"    ,.P 6.8.3.3.9.-.W ! n N a.N l.iX#XC.m m l.S.1X1X+XY.z.oX).S.P..X.Xj.S.).).}.c. . X{.n S.sXA.M x M B R Z 7.6.9.6.W.9.[ o.    ",
"    >.W 2.0.9.9.6.=.J m N p.M x F.dXgXdX<X<Xc.]. XI.S.! v B S.).).I.s.h ! I.).).wX1XP.<X{.+X$XA.n n N m X.P 2.r.;.2.W.2.` @.    ",
"    ,.W 2.t.9.6.2.=.K l N m M m I.j.! I.fX@XB Y.<X.Xb.a a ! {.@X+X.Xb.! b N. X1X{..X1XN.+XB m h.h.x p.N Q K =.=.=.2.r.>.H       ",
"    >.W *.0.6.9.3.-.` T B M M S.S.{.S.<X<XC.N B P.P.I.M.j n.Y.m m P.b.k c.P.S.N.! j M.aXdX}.n F.D.v B ! J F -.=.7.2.9.} E       ",
"      [ P 8.3.3.-.3.` z v M M |.P.{.gXl.N B n m b..XP.Y.~ k j m h 5 4 k n.S.[.N.V g  ..Xc. X[.oXm v m m A D -.7.7.2.6.` E       ",
"      W K 6.3.3.;.-.' S v v n l.+Xx.qX{.N ! b.|..X(.[.oXoX.Xj.k a l.|.#X+X.X).}.#XoXb.a j S.<Xh.d f n ~ D ] 3.3.3.1.2.G U       ",
"      } P -.8.;.-.-.3.J h v N v S..XM.pXpX.X.X+X+X<XsXpXaXdXdXc.}.dX<X+X#X<XqX+X}.(.(.I..XoX(.f s f n ~ A =.-.-.*.2.*.A E       ",
"      { P &.9.3.;.-.3.G z v M M x b.|. .S.(.N.m m d v d v s.v.@XsX .! v x p p f h m b.U.S.N.B s s d v E Z 8.-.-.*.2.{ r E       ",
"        W P 9.3.7.;.;.] H v M M c s z.(.F.M.I.S.N p i * $ s S.wXaX).n u u = @ p S.(..X.XI.S.v = u s T A / 3.=.=.=.2.K H         ",
"        W F *.7.1.:.;.6.K j v v x s d b.@X+X.X.Xv i f * O - I.c.! ).s.= u u - 4 j. XqXoXV b.n u i d E 0 6.2.=.=.1.1.C S         ",
"        { Y J 1.$.-.=.9.*.E v M m n A.S.j.I.S.j m a $ ; + 4 S.OXN.+Xn & ; n l.j.!  .b.j.j.b.S.B d l D K 9.*.&.' &.P 0 Y         ",
"          [ D *.=.7.=.7.r.Y z B S.oX.XF.j.j.m  .x.j.d.j.m a a P.S.j.j m S.S.S.I.b.Y.Y.j.A.I.P.D.j Y q r.-.&.' ' ' D W           ",
"          O.P P } 1.*.>.7.&.H m v.}.@X{.|.n.I.I.S.S.{..X}.S.S.{.D.M..X.X.X.X X}..Xn.j.|.D.{.U.m R q ' 3.&.} ' *.P 0 W           ",
"          { ' 0 } 2.7.>.} 3.P U b C..Xm k..XY.Y.U.S.c.n.].#XpX#X+X<X$XA.h s.I.b.! S.+Xl.- m j.T A P r.*.&.' ' } 0 S X.          ",
"            { D A ' } 5.>.1.3.G z h d f d M I.{.S.I.{.f f v ! l.C.B i $ @ v #X{.}.I.h i - & 5 r 0 t.=.' ' K P A 8 R             ",
"            [ ` 8 K ' ` ' ' =.6.G U d = = = - s.A.C.M u * * u $ $ % # # # & n B m p * $ & w r 7 3.3.I ] P ] P 2 S o.            ",
"              [ Y 9 } 6.} F ` =.r.F y - & @ * * u u @ O O u v * # = i A.S.4 # = - @ # + 5 3 q 6.6.=.2.I *.*.C A R               ",
"                ` D 9 ] 3.} ' L ] 3.J t 5 & * * i s.D.j.4 a n x u 4 m h.d.~ = u @ O ; t 2 0 r.1.0 } 1.&.6.A A W                 ",
"                [ ` 6 7 ] 7.K L / ] 7.} D e 5 = = d B ! h ! h u 4 ; 4 s d h + = + w r 7 K 6.%.=.3.] ' 9.K , W G.                ",
"                  [ Y 8 7 *.6.1.} ' 7.r.7.J S t w & u x i m f $ = ; 4 = u a w z e 8 0 } 7.] / ' ' / 9.` 7 r X.                  ",
"                    [ [ 8 9 7.w.] 3.^ ` 1.E.1.H e e w ~  .l d - a a z w 5 T S 9 0 } 6.=.` ` W G ( 2.P 9 Y R                     ",
"                      Y Y < 8 D / D } } D K $.Q.E.| D A S S e < S S r 2 8 2 o D ~.6.| P J ` r G &.C , r E                       ",
"                        E J 9 8 | 7.} | ' K K K ^ } 6.} 7 7 | | K o 2 1.Q.K 2 D | _ ` 1.K Y 1.} 2 , E R                         ",
"                          R R e > 6 [ } 7.' J L _ J Y K q Z / ] } 0 9 K K 0 7 | ` Y H W | K A o < U +.                          ",
"                            R E H 1 < Y ` J J H _ Y Y / Z Z / _ } ` 0 0 H 0 J 7.K H H H H r , t T R                             ",
"                                [ [ r > X 6 H Y Y U H L I I 0 y ^ 6.J , 8 J E.} 9 , > > e r E X.                                ",
"                                    [ Q H 1 . . 8 H Y O.W.~.4.O.K $.E.1.>.H.1.8 > . > t E E R                                   ",
"                                        o.R U 6 : X 1 < 8 y U y 6 1 , 9 2 X X : < y [ X.R                                       ",
"                                            X.R E H r e < 1 1 > 1 < < 8 e t E R Q +.                                            ",
"                                                  E R [ R R X.X.o.o.o.X.X.X.+.                                                  ",
"                                                                                                                                ",
"                                                                                                                                "
};
