/* XPM */
static char *exit[] = {
/* columns rows colors chars-per-pixel */
"64 64 248 2 ",
"   c #1E0A0B",
".  c #1F1619",
"X  c #250805",
"o  c #370703",
"O  c #281618",
"+  c #371A14",
"@  c #37150D",
"#  c #3D211B",
"$  c #322627",
"%  c #271B20",
"&  c #460802",
"*  c #5B0802",
"=  c #4B1507",
"-  c #591909",
";  c #461D13",
":  c #511B11",
">  c #681A07",
",  c #781904",
"<  c #6C0901",
"1  c #5C210E",
"2  c #472319",
"3  c #5C2D1B",
"4  c #562718",
"5  c #5D321E",
"6  c #6B240E",
"7  c #79260B",
"8  c #6C2C13",
"9  c #652A15",
"0  c #782C12",
"q  c #6B331B",
"w  c #7A3619",
"e  c #4A2B23",
"r  c #593628",
"t  c #493A37",
"y  c #523229",
"u  c #643522",
"i  c #6C3B25",
"p  c #633A29",
"a  c #6C3D2A",
"s  c #663724",
"d  c #7A3D23",
"f  c #733D25",
"g  c #613A2B",
"h  c #5B433A",
"j  c #6D422D",
"k  c #65402E",
"l  c #73432C",
"z  c #7B452B",
"x  c #7D492D",
"c  c #784026",
"v  c #6B4532",
"b  c #694838",
"n  c #744631",
"m  c #754A34",
"M  c #7B4C34",
"N  c #764D3A",
"B  c #79523C",
"V  c #524B4A",
"C  c #694D42",
"Z  c #6D5144",
"A  c #785846",
"S  c #6F5B53",
"D  c #7B6356",
"F  c #7E604F",
"G  c #7B6B63",
"H  c #8A1804",
"J  c #981A00",
"K  c #850F04",
"L  c #8B2C0A",
"P  c #862708",
"I  c #9D2D06",
"U  c #932D0A",
"Y  c #962806",
"T  c #8A320F",
"R  c #93320D",
"E  c #9B330C",
"W  c #9D360C",
"Q  c #853414",
"!  c #8B3514",
"~  c #843B1B",
"^  c #8B3C1B",
"/  c #8A3916",
"(  c #943B15",
")  c #983914",
"_  c #872D11",
"`  c #A52A03",
"'  c #A33206",
"]  c #AB3305",
"[  c #A43B0D",
"{  c #AB3C0B",
"}  c #A53609",
"|  c #B43C07",
" . c #A43C12",
".. c #843D22",
"X. c #8B411E",
"o. c #97421B",
"O. c #B7470B",
"+. c #A74515",
"@. c #B64C13",
"#. c #B85316",
"$. c #B34C11",
"%. c #834324",
"&. c #8C4322",
"*. c #844C2E",
"=. c #8B4C2C",
"-. c #874628",
";. c #964B24",
":. c #9A552B",
">. c #844E32",
",. c #895437",
"<. c #945A34",
"1. c #9B5B34",
"2. c #955936",
"3. c #8E512C",
"4. c #A6592B",
"5. c #A35E33",
"6. c #A84F22",
"7. c #9C623B",
"8. c #A86638",
"9. c #B2703C",
"0. c #C35915",
"q. c #C34E09",
"w. c #C7681E",
"e. c #855D46",
"r. c #965F41",
"t. c #88624A",
"y. c #9B6947",
"u. c #866755",
"i. c #9B735A",
"p. c #9B6D53",
"a. c #A46B45",
"s. c #B77846",
"d. c #A8734D",
"f. c #847269",
"g. c #947767",
"h. c #8A7A73",
"j. c #907468",
"k. c #A37E69",
"l. c #B98756",
"z. c #B9844A",
"x. c #95837B",
"c. c #AB8468",
"v. c #A98874",
"b. c #B99579",
"n. c #B58E6E",
"m. c #C89056",
"M. c #C99C66",
"N. c #C39C78",
"B. c #D39C62",
"V. c #D3A66B",
"C. c #CCA579",
"Z. c #D5AA78",
"A. c #DCB17B",
"S. c #CBA26D",
"D. c #E0B379",
"F. c #96908F",
"G. c #B79B84",
"H. c #A79C99",
"J. c #A89280",
"K. c #ADA19D",
"L. c #BFA692",
"P. c #BCA695",
"I. c #BDA28D",
"U. c #B2A8A5",
"Y. c #AEA4A1",
"T. c #C5A283",
"R. c #CAA889",
"E. c #D3AB84",
"W. c #D5AE88",
"Q. c #DBB58B",
"!. c #DEB98D",
"~. c #D9B286",
"^. c #C2AA94",
"/. c #CBAC93",
"(. c #C3AC9A",
"). c #C3A996",
"_. c #CDB29C",
"`. c #CAB199",
"'. c #DDBA93",
"]. c #DCBD9B",
"[. c #D5B597",
"{. c #E3BC8C",
"}. c #E2B984",
"|. c #E2BD93",
" X c #E1BE9A",
".X c #C6B1A2",
"XX c #CAB4A3",
"oX c #CCB9AB",
"OX c #C8B4A8",
"+X c #D5BDA5",
"@X c #D6BCA5",
"#X c #C5AFA0",
"$X c #C29E84",
"%X c #DFC19D",
"&X c #E6C394",
"*X c #E5C39C",
"=X c #E9C69A",
"-X c #EACA9D",
";X c #E9C494",
":X c #ECC795",
">X c #D7C1AD",
",X c #DBC3AC",
"<X c #DDC1A5",
"1X c #DCC5B2",
"2X c #DEC9B6",
"3X c #DDCABA",
"4X c #D6C3B3",
"5X c #E4C5A2",
"6X c #E6C9A5",
"7X c #EACBA4",
"8X c #E0C6AB",
"9X c #E5CAAB",
"0X c #EACDAC",
"qX c #E8C7A5",
"wX c #EDD1AC",
"eX c #F1D3AB",
"rX c #E5CCB4",
"tX c #E5CEBA",
"yX c #E9CEB3",
"uX c #ECD2B4",
"iX c #E7D1BC",
"pX c #ECD4BC",
"aX c #EFD8BE",
"sX c #E7D0B6",
"dX c #F1D6B3",
"fX c #F1D9BC",
"gX c #F2D7B7",
"hX c #F1CFA0",
"jX c #E7D3C3",
"kX c #EAD6C3",
"lX c #EDD9C4",
"zX c #EAD7C9",
"xX c #EDDACB",
"cX c #E6D5C9",
"vX c #F1DBC3",
"bX c #F1DECC",
"nX c #EEDED2",
"mX c #EEDED9",
"MX c #F0DFD1",
"NX c #F4E1CE",
"BX c #EFE0D5",
"VX c #EFE1DA",
"CX c #F3E1D4",
"ZX c #F2E3DC",
"AX c #F3E5E1",
"SX c #F5E9E4",
"DX c #F3EAEA",
"FX c #F1E8E7",
/* pixels */
"1XXX'.7XpXpX=XuX7X7XdXuXpX-X0XMXnXxXuX5X0XlXMXbXwXCX7XuXCXZXCXvXuXbXuXCXSXCX7XvXCXvXuXfXbXZXbXbXCXCXfXeX6X<XyXOX^.NXCXbXgXhX:XfX",
"rXXX'.7XpXpX=XdX7X0XdXpXlX7X7XCXnXxXuX=X0XaXbXbXwXNX0XuXbXZXCXvXwXvXuXCXAXbX7XvXCXvXdXfXCXAXbXbXCXZXvXdX6X6XpXOX/.vXNXvXdXhX:XvX",
"2XXX'.7XiXpX=XuXwXuXfXvXbX7X7XMXxXlXuX=X7XpXlXMX0XlX7X0XbXCXbXgXuXpXuXCXZXvX-XfXbXpX0XuXbXCXaXbXCXCXvXdX9X8XpXOXR.vXZXvXdXeXhXvX",
"2XoX].0XkXkX-XdXwXpXvXvXlXpXwXbXbXxXuX-X7XvXxXbXuXNX0XwXbXZXCXgXfXfXdXCXZXvX7XvXNXfXeXdXCXNXgXvXNXZXvXfX0X6XpX.XR.bXZXNXgXdXeXvX",
"2XoX].uXkXkX7XdXwXpXfXlXpX'.Q.5X9X8X|.A.~.6X6X6X!.*X~.A.*X8X6X'.'.!.!.9X9X'.Z.|.9X6X{.{.*X6X|.&X6X6X|.vX9X,XkX.XR.bXCXNXgXdXeXvX",
"2XoX].uXkXpX=XgXdXpXaXxXkXQ.Z.].9X<X].!.~.%X9XrXQ.W.'.~.Q.@X6XE.W.E.'.8X6XQ.~.5X0X=X*X!.8X9X*X6X9X9XC.vXyX,XkX.XR.fXCXCXvXdXeXbX",
"2XoX].uXkXpX=XdXuXpXlXxXkXlX0XzXDXDXVXkXiXmXAXAXxXxXBXpXBXDXDXkXxXxXCXDXDXlXuXAXAXCXNXxXSXZXBXZXZXAX,XvXyX6XkX.XR.vXCXNXfXdXgXNX",
"1XoX].uXzXlX7XgXuXpXaXxXlXxXuX6XnXAXAXkX9XjXmXZXxXzXmXuXxXAXAXpXkXzXnXAXVXpXpXZXCXnXxXCXAXZXCXZXZXZX,XvXyX,XpX(./.NXZXNXfXgXgXNX",
"2XoX].uXzXxXwXdXuXlXlXxXlXCXxX6X0XBXAXxX0X9XzXZXBXxXmXpXlXAXAXkXkXxXnXZXZX0XlXZXMXlXxXZXAXZXZXZXZXZX,XvXsX,XiX(./.NXCXCXvXdXdXbX",
"2XoX].uXzXkXwXdXvXlXlXnXxXCXZXuX7XpXZXVXuX6XiXZXAXxXCXlXlXAXSXxXxXnXCXAXxX6XMXZXMXxXCXAXAXCXZXZXZXZX2XCXpX,XjX(./.vXZXCXfXeXdXbX",
"rXoX].pXzXzX0XdXbXxXlXMXxXZXAXBXxXpXkXZXlX=X6XkXZXBXxXnXlXAXSXxXxXCXZXDXpX0XZXZXCXxXAXSXZXZXAXZXZXZX3XCXpX,XzX`.).vXbXNXfXdXdXbX",
"1XoX].pXzXzX0XuXbXxXlXnXxXCXAXZXZXbXpXxXzX0X&X5XnXZXMXBXpXZXSXnXCXZXAXAXyXpXZXmXbXCXSXSXAXZXAXAXZXAX2XNXpX1XzX.X`.NXCXCXfXdXfXbX",
"rXoX].pXxXxX0XuXbXlXvXnXxXZXAXAXZXmXxXkXzXpX0X-XuXVXVXZXbXnXcX,XtXzXDXSXpXxXmXMXCXAXAXAXAXAXAXAXAXAX3XCXpX1XkX#X`.NXCXCXfXdXdXvX",
"2XoX].pXxXzXyXuXbXxXvXxXlXZXAXZXZXZXnXxXlXlXpX0X0XxXxX,XN.l.y.<.2.a.n./.rXZXBXnXZXAXAXZXAXAXAXAXAXAX3XCXpXrXkX#X`.CXCXCXfXdXfXvX",
"2XoX@XpXzXzX0XwXbXvXvXxXxXZXAXAXZXVXVXnXlXlXlXvXuXC.l.9.8.8.7.1.1.<.3.3.y.n.rXZXZXZXAXSXSXAXAXAXAXZX3XZXpXrXkX(.`.CXCXCXfXdXvXbX",
"2XoX].pXzXxXyXwXvXlXvXxXlXCXAXAXAXVXmXBXzXlXbX].l.9.9.s.a.7.x s f *.2.1.1.3.<.b.xXSXZXZXSXSXZXZXAXAX3XCXpX1XkX(.(.NXCXCXgXdXvXbX",
"1XoX].pXkXxXuXwXvXxXlXxXzXCXZXZXAXZXZXmXnXpXC.z.z.z.s.<.w - o X & & : q *.1.1.<.a.4XSXZXAXZXZXZXAXAX3XbXiX1XjX(.).NXCXCXgXdXbXbX",
"2XoX].pXkXnXpXwXvXxXpXxXxXCXZXZXZXVXmXZXkXM.l.M.m.5.7 * * < & = > < & & o 4 *.a.1.2./.SXZXZXZXZXAXAX3XbXpX,XtX(.^.CXCXNXgXdXvXbX",
"2XoX@XlXzXnXpXwXvXxXpXxXxXMXZXZXZXmXVXxXS.m.V.m.( K < K , , * - , , < < * & o u y.a.2.T.ZXZXZXZXAXZX3XbXkX1XiX(.(.CXNXbXpXdXgXvX",
"2XoX].kXzXxXpX0XlXxXpXmXxXbXZXZXVXVXBXC.m.V.s.H J ` H Y H H < > 7 L , , < * & X : ,.a.7._.SXCXZXZXZX2XbXkX1XkX(.(.NXCXCXaXdXfXvX",
"2XoX].kXzXzXuXwXaXlXaXnXzXbXVXZXmXZXQ.M.V.s., Y E Y P L L P 7 6 P U P 7 6 > > = & o M a.p.jXZXmXZXZX4XbXkX1XkX(.(.CXCXNXfXdXvXbX",
"3XoX@XkXxXxXuXwXvXlXpXxXzXbXVXmXZXrXM.Z.m.H J ] | ] ' ] I I Y _ Q E P _ 0 _ 6 - > & X M y.c.ZXZXVXZX4XxXkX1XkX^.(.NXbXCXaXdXvXbX",
"3XoX@XkXzXnXuXwXlXlXpXxXkXxXmXmXxXS.V.M.} ` ` O.q.O.{ O.| { ] Q ^ ] R ( P P , > 7 - o o e.p.).SXVXCX4XxXkX,XkXL.^.NXbXCXpXdXvXbX",
"3XoX@XkXjXxXuX7XaXkXpXnXkXxXnXZX<XM.V.) ` ' ] O.@.@.O.0.| O.| X.( | [ +.E U P > P > & o ; p.i.kXZXMX4XbXkX,XjX^.).CXbXNXpXwXgXlX",
"2XOX,XkXzXxXsX-XaXlXpXzXkXxXVXnXC.Z.a.J | ` ] @.0.0.#.q.| @.O.o.o.q.{ #.@.O. ._ L 7 = = o n p.(.SXxX+XxXkX1XkX^.(.NXbXbXpXdXfXvX",
"2XOX,XxXxXnXuX7XaXlXpXzXkXlXZXrXS.S.L U [ [ [ +.#.#.+.+.+.+.+.;.o.@.+.#.+.+.+.( ( _ - : = ; t.v.nXxX+XzXiX1XkX^.^.NXxXbXpXdXfXbX",
"2XXX,XlXxXnXuX7XpXkXpXxXkXkXnX[.Z.s.J ' #.$.$.#.w.#.{ @.+.} | X.o.| O.@.O.{ { +.$.W 7 6 > & m k.4XCX+XkXiX,XjXL.^.NXbXbX0XwXpXlX",
"2XOX,XxXzXxXyX-XaXlXlXxXkXlXnXE.Z. .` ] #.#.0.#.0.0.O.@.+. .| &.^ ] { | | ] ] @.O.} L Q 0 - 4 i.`.ZX+XkXiX,XiX^.^.CXbXvX0XuXfXaX",
"2XXX,XxXzXxXrX7XaXxXvXxXkXlXzXZ.l.J ] ] $.$.O.[ O.| { $.W ) { -.^ ] { { ` I ' } | } L L 7 6 = A b.xX+XxXiX,XpXL.^.CXbXlXuXdXpXlX",
"3X.X,XkXzXxXyX-XgXxXpXxXkXlXtXZ.8.J | ] +.} [ 6.#.] ' [ E R E -.&.' [ ] ` U E E +.' L L _ 0 - v v.kX4XxXtX+XtXL.L.bXxXlXpXuXpXkX",
"2X.X@XkXcXzXpX-XuXlXpXzXjXlX8XC.:.Y W T ) o.o.;.+.) ( ) ^ ^ ^ c &.( ) W W ) ( ! +.) ! 0 0 8 - r g.tX>XkXiX,XiXL.L.NXxXlXuXdXpXkX",
"2XOX@XkXzXxXyX-XpXlXpXkXiXlX8XS...Y ' I [ W  . .{ I E  .U ! R c ..E W E E E ) R [ [ U P 0 0 - 4 j.,X@XtXiX1XiX^.^.NXbXaXuXdXpXpX",
"2XOX@XkXzXxXyX7XaXlXpXzXjXlXrXS.! I ` ` ' ' { +.} { ' [ U L E -...E E I I U L L E [ Y , 7 0 > : j.,X>XpXiX1XtX^.^.bXxXkXuXuXuXpX",
"2X.X+XkXzXxXsX7XlXxXpXpXyXlX8XM.^ Y I Y E R E ) [ [ E [ R _ W *...U R ) U T P P ) R P 7 > 6 > 4 j.4X>XkXiX,XiXL.L.bXlXpX0XuXuXpX",
"2X.X,XkXzXxXyX-XpXxX0X5X5XpXtXS.^ P E L R L R ( W I E ) ( / U z z ! _ R R ! _ P E U 7 6 6 6 > 3 g.,X@XpXrX,XpX^.^.vXpXuXwXwXuXpX",
"2X.X,XkXzXzXyX7XvXxX7X X8XpXkXC.<.Q ( Q Q X.X.X.( o.^ &.~ w ^ z c ^ / ( ^ / / Q ( / 0 8 9 9 - r x.tX_.kXiX,XiX^.^.bXlXpXpXwXuXpX",
"1X`.4XzXxXzXrX7XvXlX5X'.*XsXxXW.y.P R P ! o./ / 6.o./ 6.^ w / d d ! ! ;.^ / Q ~ &.^ 7 9 1 6 = b G.lX_.iXtX,XiX^.^.bXkXkXuXwXpXpX",
"1X`.4XzXzXxXyX-XpXkX6X].5X0XxX<Xl.7 L 7 ! T T Q ) R L 4.o.w Q f d / Q X./ &.Q 7 ^ / 7 9 1 - = S +XvX_.tXtX@XtX^.^.vXpXpXuXwXwXuX",
"2X.X4XzXzXzXyX-XpXlX6X].8X0XxXtXC.w 7 0 / Q ! Q T R Q ;.X.w ^ l f X./ &.^ Q 0 0 X./ 8 5 4 : 2 x.iXzXXXpXtX,XpX(.L.vXpXpXuX=X=X0X",
"3X.X,XzXzXxXtX7XlXlX6X X5X0XnXkX].a., 7 Q Q ! w Q o.~ ;.X.w &.l l %./ ;.w ~ 0 w &.&.q 3 4 = C .XkXkX_.yXtX,XpX(.L.bXxXpXuX=X7XwX",
"3X.X,XzXjXxXpX7XuXpX6X5X5X0XzXxX%XN.w 8 ~ ~ ~ d ..%.d =.%.d d f l *.-.-.d *.d w ..d 9 4 2 y h.tXkXkX`.9XyX<XpX(.L.lXkXkXuX7XuXuX",
"2X(.>XkXjXzXiX7X7X0X0XyX0X5XvX/.a.:.7 0 ~ ~ X.d =.-.w ;.^ w q a M ,.*.=.f %.c w -.w 3 4 ; y v i.,XpX/.0XyX@XyX^.L.kXpXpXwX=X=X0X",
"2X.X>XkXjXkXpX-X-X7X*XR.W.[.T.z.%.< 7 0 -.~ ^ ~ =.=.w 1.:.d z l z *.>.*.l x f z 3.%.q 4 ; = X 5 i.9XT.].@X[.8XG.G.vXpXuXwX&X!.'.",
"3XOX+XjXjXiXrX-X=X0XE.1.2.r.f 1 > 6 8 8 -.w ~ *.3.*.c 2.2.x z m z z ,.,.l l f z *.-.f 4 2 ; X @ + d.s.8.a.R.'.b.v.aXlXuX6X&X&X*X",
"[.I.+XkXjXiX9X-X-XuXE.8.s.s.=.- > 6 8 8 d w %.>.,.*.z ,.,.>.z v B ,.M v N l a l >.z s 4 4 4 @   O 7.s.8.8._.=Xn.c.|.}.A.'.A.V.!.",
"T.b.+XkXjXkXrX-X7X0X~.8.s.l.<.- 6 8 8 q f f z l x *.z ,.x m e.m v C z z l l a l *.z u 4 4 4 @ X O a.m.9.5._.7X$Xb.7X*X=X6X}.D.}.",
"[.b.XXkXkXjX9X=X7X0XQ.8.s.s.2.1 > 8 8 q z c c z *.*.z ,.>.l l n p ; 9 3.z z l z >.%.i 3 4 y ; X O y.m.9.7._.*XT.b.uX0X0XqX&X{.{.",
"W.b.`.pXsXpX9X&X7XpXW.8.d.s.3.- > 8 8 8 x M x %.3.x c ,.2.%.X.j p 9 q >.n M l c ,.d i 5 e 3 ; X O 7.s.8.7.XXqXT.b.0XqX=X=X&X}.~.",
"E.n.[.uXrXpX*X=X0XkXE.8.s.s.%.- > 8 q q x >.z *.,.x z ,.2.c :.n v z z *.j M z c >.z a r 2 2 + X O y.s.8.1.XX0XR.b.7X*X*X*X{.{.{.",
"W.b.`.rX8X6X'.=X7XpXZ.4.8.8.c = > q q a >.x x M ,.M M ,.>.>.,.g v B x ,.m m l f z z a y 2 2 + X O 2.9.8.1._.0XR.b.qX=X*X*X}.{.|.",
"Q.N.R.].].].'.;X7XuXC.4.4.8.w = 1 3 3 u l i j l l a i z z n n r r v n M j p r i f i r e 2 + @     <.9.5.7._.7XR.n.qX=X=X*X&X}.{.",
"W.b.T.!.'.5X|.;X0XpXC.:.:.9.w = - 3 3 3 s u i l >.l i i c l n r r v l l n B p u i i r e 2 + @     <.9.5.1._.7XR.n.=X*X=X=X&X&X|.",
"Q.N.W.|.*X5X*X=XuXpXC.;.1.8.q & 6 q 9 3 a q q l >.,.B z z f l r g B l l M B i s i q 3 e 2 ; + X   3.8.5.1./.7XR.n.*X&X*X*X&X;X}.",
"].T.W.|.*X*X|.;XuXpXE.:.a.a.q & - q 9 3 s s j l z m j l n a l y r m z l l i s s s u 5 2 2 2 # X   2.9.4.1./.yX/.n.*X7X=X*X}.}.}.",
"[.T.R.!.!.'.!.=X0X0XC.1.7.8.f & = 3 q 5 i a l m z i u a M j v y r m l l s i a p a a p 2 2 2 +     7.5.:.2./.uX_.b.qX7XqX6XD.D.}.",
"W.N.T.!.Q.!.'.-X-X-XC.1.1.8.f & = 2 4 4 5 u p j l p u j l p p e g b j i s s p p a p y e # + O X O <.8.1.2./.pX_.b.qXqX*X=X{.}.{.",
"W.N.T.'.Q.!. X;X7X0XC.1.7.8.x = 1 4 r p j v b e.t.N N B M m b y k N B m v v v k b N r e e # O + O 2.5.5.3./.uX_.b.0X7X*X6X;X;X|.",
"C.T.R.'.Q.Q.'.;X0X6XN.2.y.a.,.4 9 5 p b A A A e.y.e.t.u.e.e.t.r h u.e.e.A b Z A B A b y t e + + O <.5.:.2.`.0X_.b.6XqX6XqX;X;X}.",
"T.T.R.'.~.~.'.7XgX6XN.1.7.y.B 4 1 k r k B N A e.t.t.t.e.t.t.A r b u.A t.A b b b v b k y e e + + O ,.5.:.2._.7X/.n.6X6X*X-X;X}.~.",
"W.T.R.'.!.'.'.-X7XsXC.a.y.y.,.3 4 b v N A A A u.t.e.A A A A A g b A A u.A b b b v C C h t $ O O % <.1.:.*./.*Xb.c.6X*X'. X{.A.Z.",
"[.N.N.~.W.Q.Q.}.}.*XN.y.p.y.e.v 5 N b b A A A A F F F F u.F u.b Z u.u.u.u.Z b Z b C C t t $ $ O $ t.8.2.*.G.5Xb.c.9X X|. X|.|.~.",
"[.b.n.~.V.Z.~.D.A.Q.n.p.p.i.e.v r k k b A A A A A F F A g.u.u.Z u.g.j.u.F A Z Z Z Z C t t $ % . $ t.a.7.e.b.~.n.v.5X X!.Q.~.!.~.",
"[.b.n.~.V.E.Q.A.A. XN.c.c.t.B i.t.S S D D D f.f.h.h.h.h.x.x.h.G h.x.h.h.f.f.h.f.G G D S V V V t t ,.y.d.t.b.{.n.i.~.'.~.Q.B.m.m.",
"I.v.v.'.[.].<X[.R.@XoXoXoXJ.g.G.K.K.K.K.H.K.H.H.K.K.U.U.U.U.U.U.Y.Y.U.U.Y.Y.H.H.H.H.H.H.F.F.F.F.f.v.G./.G.G.'.n.g.W.'.'.!.B.m.m."
};
