/* XPM */
static char *floor[] = {
/* columns rows colors chars-per-pixel */
"64 64 169 2 ",
"   c #090607",
".  c #09070A",
"X  c #0E0B0D",
"o  c #110D0E",
"O  c #14100F",
"+  c #0F0D10",
"@  c #110E11",
"#  c #151212",
"$  c #181410",
"%  c #181411",
"&  c #191411",
"*  c #181511",
"=  c #191511",
"-  c #1A1511",
";  c #181412",
":  c #191412",
">  c #181512",
",  c #191512",
"<  c #181413",
"1  c #191413",
"2  c #181513",
"3  c #191513",
"4  c #1A1412",
"5  c #1A1512",
"6  c #1A1513",
"7  c #191612",
"8  c #191613",
"9  c #1A1612",
"0  c #1B1612",
"q  c #1A1613",
"w  c #1B1613",
"e  c #1A1713",
"r  c #1B1713",
"t  c #1C1713",
"y  c #181414",
"u  c #191414",
"i  c #181514",
"p  c #191514",
"a  c #181515",
"s  c #191515",
"d  c #1A1414",
"f  c #1A1514",
"g  c #1A1515",
"h  c #191614",
"j  c #191714",
"k  c #181615",
"l  c #191615",
"z  c #181715",
"x  c #1A1614",
"c  c #1B1614",
"v  c #1A1714",
"b  c #1B1714",
"n  c #1A1615",
"m  c #1B1615",
"M  c #1A1715",
"N  c #1B1715",
"B  c #181516",
"V  c #191516",
"C  c #191616",
"Z  c #191716",
"A  c #191717",
"S  c #1A1716",
"D  c #1B1716",
"F  c #1C1714",
"G  c #1C1715",
"H  c #1D1715",
"J  c #1C1716",
"K  c #191514",
"L  c #1B1813",
"P  c #1C1813",
"I  c #1B1814",
"U  c #1B1815",
"Y  c #1A1816",
"T  c #1B1816",
"R  c #1A1916",
"E  c #1A1817",
"W  c #1B1817",
"Q  c #1B1917",
"!  c #1C1814",
"~  c #1D1814",
"^  c #1D1914",
"/  c #1C1815",
"(  c #1D1815",
")  c #1C1915",
"_  c #1D1915",
"`  c #1E1915",
"'  c #1E1A15",
"]  c #1C1816",
"[  c #1D1816",
"{  c #1C1916",
"}  c #1D1916",
"|  c #1C1817",
" . c #1C1917",
".. c #1D1917",
"X. c #1E1916",
"o. c #1E1917",
"O. c #1D1A16",
"+. c #1C1A17",
"@. c #1D1B17",
"#. c #1E1A16",
"$. c #1F1A16",
"%. c #1E1B16",
"&. c #1E1A17",
"*. c #1F1A17",
"=. c #1E1B17",
"-. c #1F1B17",
";. c #1F1C17",
":. c #1D1916",
">. c #161519",
",. c #191718",
"<. c #1A1918",
"1. c #1A1819",
"2. c #1C1918",
"3. c #1D1918",
"4. c #1C1919",
"5. c #1E1918",
"6. c #1D1A18",
"7. c #1D1A19",
"8. c #1E1A18",
"9. c #1F1A18",
"0. c #1E1B18",
"q. c #1F1B18",
"w. c #1F1A19",
"e. c #1F1B19",
"r. c #1D1B1A",
"t. c #1F1B1A",
"y. c #1F1C18",
"u. c #1E1A19",
"i. c #201B17",
"p. c #201A17",
"a. c #201B18",
"s. c #211B19",
"d. c #201C18",
"f. c #201D18",
"g. c #201C19",
"h. c #211C19",
"j. c #201D19",
"k. c #211D19",
"l. c #201D1A",
"z. c #211D1A",
"x. c #211D1B",
"c. c #211E1A",
"v. c #221E1A",
"b. c #231E1A",
"n. c #231F1B",
"m. c #241E19",
"M. c #251E19",
"N. c #241F1B",
"B. c #231F1C",
"V. c #231F1D",
"C. c #231F1E",
"Z. c #221D1A",
"A. c #24201C",
"S. c #27211C",
"D. c #27211D",
"F. c #2E261F",
"G. c #29221E",
"H. c #242222",
"J. c #292420",
"K. c #2A2321",
"L. c #2D2926",
"P. c #2D2925",
"I. c #302723",
"U. c #312B25",
"Y. c #312924",
"T. c #302C29",
"R. c #392E29",
"E. c #39312E",
"W. c #3F3730",
/* pixels */
"a R S a # # a a R S S S S S F S S S q | P q | | | b.B.b.| | q F.U.a S S S S S S S S q | | S q F | | | S q q q q | b.| b.;.| | ;.",
"# # < a # # S S R S q # # S S S q q F | | | | i.| | | | | | q M.J.S q F S S S S F q q S q q q F q q | S q q # O q b.i.| | b.;.b.",
"a # S < S # # a a a a < < S S S | q q q S | | q $ P | | | | q M.7.# S S S S S S q S $ q S S q q q q S S F q # # O q | q | | 7.7.",
"| 7.< S # S @ # a # # < S 7.S # q q | q q # O q q # q q | | | A.L.# S S S S q q S S q # q q q q q q $ S 7.S S # q F S | | | | | ",
"7.S < # # R # # 1.a # # # S # # S | q L R # O # F q S S | A.q M.T.q S S S q S q # S # $ q # q S $ q q q S S q q q 7.q q | | | F ",
"R a # # # a a a a a < # # q # R | P q q q S # # O # q | 7.A.q | | # q q q S q S q S S S q # # $ q q q $ $ # q q q | | q | y.b.| ",
"S S S # < # a a < a a S q S q # # S q q O q # O # # # # < # < a.b.$ q $ S S $ S S S S q S S # $ q q q q q q q q q q q | b.a.b.b.",
"# < < # # # # # # a a # q # # # o # q q q q O o # S S < # S < | 7.# S q q S S q S S S S q < # $ # q q q q $ q q q F S q | b.b.7.",
"# # < < S < a S | 7.a # q q # @ < # < q q q q # @ # R | S S < b.b.q S q q S S q S q q q # # $ $ # # q $ $ O $ q # S S q b.| | 7.",
"# S a a | R b.a.7.7.R | | | | q R b.q F S q q q a # # q S # O y.7.7.B.# q S S S q q q q q # q q # $ $ $ q q $ q # q q S b.| | | ",
"a S R # # | | | | | | i.| F | | | | | | | q q q # < S q S < O S 7.q q # q S < S q S S S q # q $ # q q q $ q $ q # # q F | b.| a.",
"a # a # # # # # 7.R S | | | | A.S | b.< q q q S # O < O # O o | 7.# S q q S S q q q S q q $ q q $ $ q q q q # # q q | | | b.b.| ",
"a a # # # # # < 7.| | | | S | | < o # o # q q q | # # # # O o | 7.# q q S S S S S q q q q # q q q q q q q q $ # q q i.| b.| b.R ",
"1.# # a # # @ # # S ;.| | q q t t < O o o # q # @ O # O # O X | b.# $ S q q q S S q q $ $ q q $ q q q q q q q $ $ # F | b.7.| | ",
",.# a # # # # # o # # < S | | t P | O o o # # @ @ X o O O O X | a.# # q q S S S q q q # q q q q q q q q S q q q q q S F b.b.| | ",
"# # # # # # # # o # # S | # q q L P q O o # # o o X o o O O X S | S $ q q q S S q S q $ $ # $ q q q q q | S | q q q q q b.b.7.F ",
"a @ @ a @ @ X X X # # S S q q F S | | q # q q O O o # X o # X q S # q q $ q S S q S S $ # $ q q q q q F S S S y q q q q b.b.b.b.",
"R a # # S X o X X @ # # # # # q q q q # q q # O o o O o o o o q # # S S S q S q q S q q $ q $ $ q q q | F S q S q q F q | b.| ;.",
"7.S # @ # o o X X X # # # S q # # q O o # q < q o o # o X o o q S # q q S S S S S F S q q q q # q S S F S S q q q q | q | b.;.7.",
"R a # # o @ @ X . X X @ # # q # # # o X o < # # # X # < o X o P 7.# q $ q S S q 7.7.S q q S S S S S S F S S q $ q q # # S b.b.b.",
"a # # # # # a # + X + @ o X o # q < o o O q o O < O o o o o o | 7.$ S # # q q q # $ S S q S S B.7.S S S S S S q q # # # | b.| 7.",
"# # @ o o # S X # + + + @ X X o q q o X O q o o # O # o o o o | a # S q S q # S S S S S S q S S q S S S S S S S q q q < 7.a.| b.",
"@ # # X X # q # @ @ @ X @ o X X o # o X o q O o o o O O o X O | S # # q S $ H.b.# q q S S S S S q S S S S S # R S # # q | 7.| | ",
"a # # X X # # X + # @ @ + X X o X O O # O O # # O o o O o X X | B.S # # # q | S # q q q q q S S S q q S S S q q q $ $ q | | 7.7.",
"# + @ X # X # X + @ + @ + + X X X X O # # o O # X O X o O X X q S # # # # # S S # q # # q # $ S S S q S q # q S q $ q q | | 7.S ",
"+ X + X # X o + @ + + + X X X X X X X O O o o # X o o o O o o P S @ # # q S S S # H.7.# $ $ # S S S S S q # S # S q # S | | b.| ",
"# @ + + + X X X X X X X X X X X X X X o O X X o O o X b.q o O | 7.o # O @ S S S q S # $ S q S S S b.S q S $ q < q q S | S S 7.7.",
"+ + + + + X X X X X + X @ a . X o X X o O X X X o o o o o O o | S o # # @ # # # $ $ $ $ S S S S # P.7.S S q < q q q S | S | | 7.",
"+ + + X X X X # X X + @ X X X . X X X O O X X X o o o X o q o | 7.o # S # O # S S q S q q q q S q # # S S q q q q # S | S | | | ",
"# @ X X X X X @ X X X X o o X X X X X o O X X X o o o X o O O | 7.o a S S | # q q q # q S q # $ $ q S S S S S q q S < S | | S S ",
"X X X X X X X X X X X X X X . . . . . X X . . X X X X o o O O q # # H.H.a 7.# # # o o o # # # # # # # # # q S # q # # S # S < q ",
"K.S a a # a # # # # # a # # # # # # q S # S S q S | q q q | | J.K.L.E.R.K.K.D.B.D.M.a.7.b.M.B.B.b.b.b.b.D.M.D.A.B.M.A.I.I.I.D.G.",
"W.B.7.| 7.| | S q S 7.B.# # S # S S A.b.S B.7.a.7.b.7.b.a.b.a.B.K.| | | i.b.a.b.b.| i.b.M.i.i.b.a.b.| | a.i.i.a.| a.a.M.D.M.S.D.",
"+ + + + X X X X X X X X X X . . . . . . . . X X X o o o # # o | a . X o o o # # o O # O # # # # q O q q O q $ $ S # # # q q | | ",
"# @ + X X X X X X X X X X X X X X X X X X X X # # @ @ # # @ O S # . o o O # O O O O # # # # q # q q q q q q q $ S # # $ q q b.M.",
"@ + + + X X X X X X X X X X X X X X X X X X X @ @ X @ # # # # F # X o o o o O O # O # # # # # # O # O O # # # # # # O O q F b.A.",
"# @ + + X X X X o o X X X X # X X X X X X X X o X X o o # @ o q q X X o o o o o O O O # O # # q O # O O O O O O # O O O q | | a.",
"@ @ + X X X X # # @ X @ + X @ # X X X o o X o o o o o o o o o # @ X X X o o o o o o O O o o O o O o O # # # O O O O O O q | | | ",
"+ + X X X X X X o # X X X X X o X X X @ @ X o o @ o o o o o o q # . X X X X o o o o o O O O # O o o o # # o O O O O O O $ | | | ",
"+ + + X X X X X o # X X X X X X # S o o o o o o @ o o o @ o o # # X X X X X X X o o o o # # # $ $ q $ O o o o o o o o o O q | q ",
"# + + X X X X X o o X X X X @ # # # X o X o @ o @ o o o o o X # # X o X o o X X o o o o o O O O O # o o o o o o o o o o O O q # ",
"# + + X X + + + @ o X X X o X + X X X o o o o o o o o X o o o q # . X X o q o X o o o o o o O O o X X o o o o X X X o o O O O O ",
"# + + X + @ @ X X @ X 7.H.. X @ X # o X X X X o o o o o o o o # # . X X X o O o o o o X X X X o o o X X X o o X X X o o O O O O ",
"# @ @ + @ @ @ @ + X X # # X X X X L.o X o o o X o # o o o o @ # o . X X . X X X X X X X X X X o q O o X X o o o o o o o o o O o ",
"a @ + + @ X X @ + X X @ X X X X X @ o o X o o o o o o @ o o o S # . X X X X X X X X X X X o o o $ o o o X X o X o o o o o o O o ",
"# @ + + X X X X + + X @ X X @ @ X o @ o o o @ @ o # o o o o o S S . X X o X X X X X X X X o X o O X X X o o o o o o o o o o O # ",
">.@ + + X X X @ o X + X X X @ o X o o o o @ o o o # o o o o o S S . X X X X X X X X o o X X X o o X o X X o o O o o o o o O O q ",
"# # + X X X o @ @ @ @ @ X X o o o X X X o @ @ o o o o o o o o S a . X X o X X o o o o o o X o o $ o o o X X o o o X X o # O o q ",
"# + + + + @ @ @ @ @ @ + @ o o + X X o X X o @ o o o o o o o o # # . X X X o o o o o o X X o o o $ $ O o o o o o o o o o o o o q ",
"# @ + @ + X o o o @ X X t.a X + @ @ X X o o @ o @ o o o o @ o # a X X X X X X o X X X X X o o o o O O o o o o o o o o o o O < O ",
"a @ @ + @ + @ X + @ o X X @ o X o o X X X o o o o o o o o o o # # X X . X X X X X X o X o o o o X o # O o o @ o o o O o # O o # ",
"a # + + @ @ @ X + X X X X @ @ o o X o o @ o o o o o o o o o o # # X X X o o o o X X o o o o X X X o o o o o o o o O # o O # # q ",
">.@ @ @ @ o @ @ X X X X X + @ o X X X o o @ @ o o o o X X o o # # X X X X o o o o X X o o o o o o o o o o o o O # o o o o # # $ ",
"a # @ @ @ @ @ @ X X X X X + @ X + + X X o o @ X o o o o o o X # y X X X X o o o o o o o o o o o o o o @ o o o O # # O O # S $ # ",
"# @ @ @ @ @ @ @ @ X X X X X X + + X X + X @ @ X @ @ @ o X X X # a X X X o o o @ @ @ o o o o o o o o o o o o o O # $ # # $ q # # ",
"a @ @ + @ X X @ + X X X X X X X X X X + + + X @ o o X @ X # @ o # X X o o o @ o o o o o o o o o X X X o o o o O O # O # S S # # ",
">.# @ + + + + + + X o @ X X + @ X X o @ @ + X @ @ + + @ X a @ # # X @ X o o o o o o o o o o o o o o o o o o o o o o O q F q S S ",
">.# @ @ @ + @ @ + + o o + X X @ @ @ o o @ X X X X @ @ o o X X y S X o o o # # o o o o o o o o o o @ @ o o O o o # # # q 7.S S S ",
">.>.@ # @ @ # + @ @ X X X X @ X X @ X o X X X X X X X o o o X # # . X X o o o @ o o o o o O o o o o o O # o o # q S q q S F S S ",
">.# # @ @ @ # @ @ @ X @ X X X + o X @ o X X X X X X X o o X X @ @ X X o o o @ @ o o @ O O o o # o o O # # # # q # # # S S S ,.7.",
">.# # # @ # @ + + @ @ X X X X X @ o o X X X X X X X X o X X X # @ . o o o o o o o O O O o o @ O O # # # # S S # # O # q q q 7.7.",
"# a # # # # @ @ + + + + X X X X o X X X X X + o o X o X o o X y # . X X o o o o o o o o o O # # # # # # # # # # # # # # $ q y S ",
"# # # @ @ @ # # @ @ + + X X X @ @ X o o X X o o o o o o o o o # # X X X o o o o o o o o o o o o # # # O O O O o o o o o o # # # ",
"# + + + + @ + + @ + + + + + @ # o @ o o o o o o o o X X @ o X S S   X X X o o o o o o o o o o O # # # O o O O o o o o o o @ # # "
};
