/* XPM */
static char *player[] = {
/* columns rows colors chars-per-pixel */
"64 64 229 2 ",
"   c None",
".  c #010102",
"X  c #090606",
"o  c #0C0907",
"O  c #050709",
"+  c #0B060A",
"@  c #050A0C",
"#  c #0B0A0B",
"$  c #070907",
"%  c #130C0D",
"&  c #13080B",
"*  c #12110D",
"=  c #1A120E",
"-  c #060C11",
";  c #0C0B11",
":  c #120F10",
">  c #0D1013",
",  c #161312",
"<  c #1C1713",
"1  c #221A16",
"2  c #221A16",
"3  c #2B1A0F",
"4  c #2C261E",
"5  c #33231F",
"6  c #272628",
"7  c #382D26",
"8  c #3A322C",
"9  c #393737",
"0  c #2C2C31",
"q  c #44362C",
"w  c #48352A",
"e  c #473E39",
"r  c #563E24",
"t  c #5A4939",
"y  c #68533D",
"u  c #7C5E3D",
"i  c #72573E",
"p  c #78572D",
"a  c #7D6133",
"s  c #433C40",
"d  c #4D4D4D",
"f  c #474545",
"g  c #514A48",
"h  c #5F5344",
"j  c #535155",
"k  c #624A40",
"l  c #6B5547",
"z  c #745944",
"x  c #79634C",
"c  c #67625C",
"v  c #766756",
"b  c #7E715E",
"n  c #665F61",
"m  c #6A6A6C",
"M  c #676666",
"N  c #776D69",
"B  c #797879",
"V  c #6A6D75",
"C  c #815936",
"Z  c #95682E",
"A  c #8A6739",
"S  c #936435",
"D  c #936B33",
"F  c #956C39",
"G  c #8E703B",
"H  c #9D7536",
"J  c #A8792C",
"K  c #B57C25",
"L  c #B47C2B",
"P  c #BC7B26",
"I  c #A77733",
"U  c #B17C32",
"Y  c #B47938",
"T  c #8A6D45",
"R  c #876849",
"E  c #9A6D41",
"W  c #8E7149",
"Q  c #9A734A",
"!  c #836A56",
"~  c #8B745B",
"^  c #977A5C",
"/  c #A3784B",
"(  c #A37F5E",
")  c #847567",
"_  c #927660",
"`  c #967B63",
"'  c #877C76",
"]  c #A27D60",
"[  c #B58024",
"{  c #AA802F",
"}  c #A8855A",
"|  c #B88D5A",
" . c #9C8363",
".. c #99856E",
"X. c #948678",
"o. c #8E8574",
"O. c #AB8361",
"+. c #A58869",
"@. c #B68B65",
"#. c #BB946D",
"$. c #BE996F",
"%. c #A58A73",
"&. c #A68D75",
"*. c #BC9573",
"=. c #BC9C7C",
"-. c #B59776",
";. c #B38E71",
":. c #BAA07D",
">. c #C5925E",
",. c #C49362",
"<. c #CC9B65",
"1. c #C49B6A",
"2. c #CB9C6B",
"3. c #CA9566",
"4. c #D49D68",
"5. c #C49C73",
"6. c #C79C76",
"7. c #D49F77",
"8. c #CBA36C",
"9. c #D4A26D",
"0. c #DAA46E",
"q. c #C5A374",
"w. c #CBA376",
"e. c #CCA57B",
"r. c #C9A57A",
"t. c #D2A57B",
"y. c #DBAB7C",
"u. c #D6A874",
"i. c #DAB27E",
"p. c #E2AF7A",
"a. c #E2AD74",
"s. c #E3B37D",
"d. c #EDBA7D",
"f. c #EBB67D",
"g. c #FEBE7E",
"h. c #F2BE7F",
"j. c #FDC17D",
"k. c #7E8382",
"l. c #898788",
"z. c #978C86",
"x. c #97928A",
"c. c #949595",
"v. c #9C9C9C",
"b. c #9C9798",
"n. c #8C918E",
"m. c #A79887",
"M. c #A69E97",
"N. c #AFA598",
"B. c #949BA0",
"V. c #9FA2A2",
"C. c #A8A9A8",
"Z. c #B2ABA9",
"A. c #B7B1AC",
"S. c #BBBBB9",
"D. c #B8B6B6",
"F. c #ADAFB1",
"G. c #C3A282",
"H. c #CCA981",
"J. c #CCA886",
"K. c #D3AB82",
"L. c #D9AB82",
"P. c #D6B486",
"I. c #DCB384",
"U. c #D7B48D",
"Y. c #DCB794",
"T. c #E4B583",
"R. c #E9B789",
"E. c #ECBC8B",
"W. c #E4BA89",
"Q. c #F4BD85",
"!. c #FDBE83",
"~. c #F3BD89",
"^. c #FABF8A",
"/. c #E2BC95",
"(. c #E7BB96",
"). c #C5BDB4",
"_. c #C2BAAF",
"`. c #DEC192",
"'. c #ECC385",
"]. c #EAC28C",
"[. c #E5C589",
"{. c #F4C285",
"}. c #FCC284",
"|. c #F5C38C",
" X c #FBC38B",
".X c #FDCA8F",
"XX c #FECA84",
"oX c #ECC393",
"OX c #EBC59C",
"+X c #EDCC99",
"@X c #E5C598",
"#X c #F2C493",
"$X c #FBC692",
"%X c #F3CC95",
"&X c #FCCB95",
"*X c #F3C69C",
"=X c #FDC79B",
"-X c #F5CC9C",
";X c #FECE9A",
":X c #FCCD9B",
">X c #FCD09D",
",X c #F8D198",
"<X c #EDD09C",
"1X c #D3C7B4",
"2X c #EACBA7",
"3X c #F4CCA2",
"4X c #FBCDA2",
"5X c #F4CBA9",
"6X c #FCD1A3",
"7X c #F7D2A4",
"8X c #EBD1AA",
"9X c #BABDC2",
"0X c #C5BFC1",
"qX c #C2C3C3",
"wX c #CBCBCB",
"eX c #C6C6C9",
"rX c #CDCDD1",
"tX c #D3D3D3",
"yX c #DBD9D9",
"uX c #D1D2CF",
"iX c #E0DDDB",
"pX c #DDE1DF",
"aX c #DCDDE0",
"sX c #DFE6EB",
"dX c #E7E6E5",
"fX c #EEF2F3",
"gX c #FDFEFD",
"hX c #F9F7F7",
"jX c #F1F2EF",
/* pixels */
"                                                                                                                                ",
"                                                                                                                                ",
"                                                                                                                                ",
"                                                                                                                                ",
"                                                                                                                                ",
"                                          - @ @ O . . O . . . O . . O @ @ - -                                                   ",
"                                  @ O . . . . . . . . . . . . . . . . . . . . . . . O @ -                                       ",
"                            @ O . . . . . . . . . . . . . . . . . . . . . . . . . . . . . . . O @                               ",
"                        - O . . . . . . . . . . . . . . . . . . . . . . . . . . . . . . . . . . . . . O @                       ",
"                      @ . . . . . . . . . . . . . . . . . . . . . . . . . . . . . . . . . . . . . . . . . . O -                 ",
"                    - O X $ $ @ o o o O O $ + O $ X X $ $ $ + + + + O O O O O O O O $ $ X X X O $ $ $ X + o o o :               ",
"                    : @ + o @ @ # # # @ @ # # # # # o o o # # # # # # # # # # # # # o o o o o o o o o # # # # ; >               ",
"                      # o o @ o % , & X X O @ @ @ @ @ @ @ @ @ $ o o o o o o o o o o # ; # o o o o o o o # # - #                 ",
"                      # o o # + l N.&.` ! v h t q 7 4 1 < = , : % & # # # # # - - - # & # # @ $ $ o o , 1 * >                   ",
"                      # o o ; & _ 7X6X6X6X4X-X*XoX/.Y.U.J.G.=.-.-.;.+. . .^ _ _ _ _ ` ` v 6 O . . . $ 7 &.                      ",
"                      * @ o # # ^ 7X-X;X>X;X:X-X:X;X>X;X;X;X>X>X>X6X>X;X;X;X>X;X;X6X3X%.7 o 1 q t z z O.E.oX                    ",
"                      , @ o & ; ^ &X;X@X=.~ l t k ! -.Y.3X4X;X-X;X;X;X=X=X=X-X;X;X(.x 2 q _ H.R.Q.}. X X X|.                    ",
"                      , @ o # ;  .4X%.8 % X & = = = 1 7 l %.Y.-XoX:X;X=X=X=X;X;X(.l w O.R. Xg.!.!.}.g.^.}.|.                    ",
"                        # o # ; %.2X8 1 l ( $.e.t.e.=.;.~ t w l ;.7X;X;X=X&X&X.XQ.@.y. XQ.1.W ! ` 6.'.}.!.|.                    ",
"                        ; o o : -.=.i H.{.}.}.XXXX}.j.j. X(.=.y -.7X;X;X=X$X X}.g.}. XR.~ c l.c.l.c v i.{. X                    ",
"                        ; o o , r.I.T. X}.~.w.O.O.#.i.{.g.!.$X*X*X;X;X;X=X$X X}.!.g.^.^ ' S.qXqXeXqXn.v W. X                    ",
"                        ; o + < K.&X X}.T.~ N o.l.' v ^ p.}.}.=X4X;X;X;X=X=X X}.!.!.y.! 1XwXwXwXwXwXtXl.*. XoX                  ",
"                        ; o X 6 /..X}.~._ x.S.9X9X9XD.z.! q.XX$X:X;X;X;X=X=X.X}.!.}.#.x.uXuXc.d d b.tXV.O.g.|.                  ",
"                        # o X e OX.X XH.' qXqXqXqXqXqXeXA.~ d. X=X&X;X;X=X&X X!.!. X+.C.pXv., . . < C.C.| j.#X                  ",
"                        * # + x -X&X-X:.M.rXwXwXwXwXwXwXwXX.u.}.=X:X:X:X=X$X{.^.!. X` S.sXm 9 f o . M x.5.j.|.                  ",
"                        * + % &.,X=X-X-.A.tXtXtXtXqXS.wXtXz.u.}.=X:X:X:X&XQ.4.Q.!. X( ).fXeXc.0 $ . d ) T.g.|.                  ",
"                      U.v = 5 U.&X;X>X-.S.aXyXyXv.9 6 m tXx.u.XX=X:X:X;X&X~.,.~.!.!.#.M.hXrX6 . . X q #. Xg.|.                  ",
"                2X8X3X>X8Xv l 5X:X;X>X=.S.dXdXwX0 . o # v.m.s.XX=X:X:X;X&X$X1.T.}.g.T.! x.b.e = 7 R t.}.j.g.{.                  ",
"                3X3XP.I.-X`.*.3X-X-X>XG.C.jXjXtXB N 9 O M %.{.&X&X=X;X;X-X;Xy.9.j.j.}.s.@.@.;.5.T.^.!.g.j.j.{.                  ",
"              @X3Xw.8.| ].%XW.*X;X-X;X/.' tXgXfXl.0 O . q *..X&X&X=X:X-X-X;X#X,.h.}.}. X X X X X}.}. X X}.j. X                  ",
"              8X/.7.|.<.T.{.:X4X;X;X;X4XJ.) x.M.9 = 4 h -.#X&X=X:X:X=X-X;X;X;Xt.9.}.}.}.j.j.j.}..X&X-X=X X}. X                  ",
"              2X/.7. X4.y.}.&X;X;X;X;X;X;XOXJ.G.G.H.Y.3X>X&X&X=XR.:X=X-X;X;X:X*X3.p.j.j.}. X$X=X:X;X4X4X&X}. X                  ",
"                @X1.}.y.6. X$X:X:X;X;X;X=X-X;X;X;X;X&X-X;X&X;X4Xr.OX-X&X;X;X=X:XE.>.a.Q. X$X=X;X;X;X;X;X&X X~.                  ",
"                  1.d.Q.,.Q.$X=X:X;X;X-X-X-X&X&X&X-X-X-X-X&X-XOX5.OX-X&X;X;X=X&X=XT.4.3.9.|.&X-X&X-X-X&X&X X{.                  ",
"                    9.^.4.4.$X;X;X;X;X;X;X;X;X;X;X;X;X-X-X-XE.6.W.-X;X;X;X;X;X=X=X$X$X~.0.<.&X;X;X-X;X&X X|.                    ",
"                    } R.!.<.s.;X;X;X;X;X;X;X;X;X;X;X;X;X-X:Xe.Y.4X&X;X;X;X;X;X;X;X|.0.^. X>.E.=X;X-X=X$X|.{.                    ",
"                      w.{.Q.|.;X-X;X;X;X;X;X;X;X;X;X;X;X:X:Xe.U.*X#X-X;X;X:X;X;X;X%X3.p.s.>.Q. X&X&X$X|.|.                      ",
"                        T..X&X&X-X;X;X;X;X;X;X;X;X;X;X;X:X:XOXe.w.w.e.*X4X4X;X;X;X;X9.,.<.a.{.}. XXX}. X'.                      ",
"                        1.&X-X-X-X;X;X;X;X;X;X;X;X;X;X;X:X:X-X-X-X-XP.q.I.(.*X3X3X*X2.y. X}.!.!.!.!.!.~.                        ",
"                        q.P.>X-X-X;X;X;X;X-X-X:X&X;X;X;X;X;X:X:X-X-X>X%XT.u.2.2.9.2.<.Q.}.!.!.!.!.!.!.E.                        ",
"                        @XP.W.].;X;X;X;X;X-X:X:X:X;X6X>X>X;X;X;X;X;X;X&X.X}.{.d.d.d.{.!.!.g.!.!.!.!.^.T.                        ",
"                        <X4XH.W.;X;X;X;X;X;X:Xt.@.#.*.5.q.w.t.K.L.6.6.L.~. X!.j.j.j.j.}.}.}.}.}.j.g.~.                          ",
"                          +Xq.@X,X;X;X;X;X;X;X5.C E F F D D D D D D F S E 2.Q.d.f.f.^. X X}. X X X}.'.                          ",
"                            H.3X-X;X;X;X;X;X:XOXQ I [ K K L L L P P L Y I S F F A F / <.s.s.s.i.L.R.                            ",
"                            2X4X;X;X;X;X;X;X:X4XK.p a A T Q Z I L P P P L L J J U U I S S S S A C q.                            ",
"                              3X:X;X;X;X;X;X-X:X-X! e C.tXdXZ.y A D I I J K L L L K L Y I H G a }                               ",
"                              +X:X;X;X;X;X;X-X-X;XY.e j dXgXhXB D.).m.` ~ W T u T W u i ..b X.x P.                              ",
"                                oX-X;X;X;X;X-X;X;X6X-.8 eXgXhXn.yXgXgXeXdXjXyXl.yXiXB k.tXV ' H.                                ",
"                                  i.oX:X;X;X-X;X;X&X-Xb g yXgXV.yXgXgXF.yXjXdXm M m d F.B.1 ] oX                                ",
"                                      ].-X:X-X;X;X&X&X@Xt e n.c.D.qXS.m f d 9 ; 9 qXn.Z.) u E.                                  ",
"                                          %X-X;X;X;X&X,XU.t 8 g A.eXl.B F.C.6 . d uXo.y u I.[.                                  ",
"                                            %X-X:X:X-X-X3XJ.A T T  .v z._.A.e 3 r A G A w.].                                    ",
"                                                -X3X:X:X:X:X5.S I J H D D D D J { I Z <.|.                                      ",
"                                                  -X:X3X:X:X5X5.Z J L L L L K [ I S ,.{.'.                                      ",
"                                                    +X3X3X:X:X:Xe.A Z U L L L J A ,.{.'.                                        ",
"                                                        3X;X-X-X>XW./ D H J Z F 8.{.'.                                          ",
"                                                          +X-X-X:X4X5X6.Q Q | f.{.'.                                            ",
"                                                            [.+X:X:X:X,X$X|.}.}.'.                                              ",
"                                                                  @X<X%X|.~.{.W.                                                ",
"                                                                                                                                ",
"                                                                                                                                ",
"                                                                                                                                ",
"                                                                                                                                ",
"                                                                                                                                "
};
