/* XPM */
static char *wall[] = {
/* columns rows colors chars-per-pixel */
"64 64 210 2 ",
"   c #020101",
".  c #0E0C07",
"X  c #090806",
"o  c #130E0C",
"O  c #14110D",
"+  c #1B130E",
"@  c #1C1511",
"#  c #1E1813",
"$  c #22140E",
"%  c #211711",
"&  c #231A14",
"*  c #2C1D15",
"=  c #231D19",
"-  c #2C1E18",
";  c #331E14",
":  c #321F19",
">  c #2E2017",
",  c #26211D",
"<  c #2D211A",
"1  c #332117",
"2  c #3B2416",
"3  c #34231A",
"4  c #3B251B",
"5  c #3E2A1D",
"6  c #2B2521",
"7  c #2F2924",
"8  c #342524",
"9  c #392925",
"0  c #41261D",
"q  c #442A1D",
"w  c #4D2D1D",
"e  c #58341F",
"r  c #442C22",
"t  c #4D2D23",
"y  c #512E22",
"u  c #473024",
"i  c #4C3229",
"p  c #4C382F",
"a  c #4B3225",
"s  c #543424",
"d  c #5C3624",
"f  c #5C3926",
"g  c #51352B",
"h  c #553A2B",
"j  c #5C3B2B",
"k  c #533531",
"l  c #5A3D34",
"z  c #523A36",
"x  c #483533",
"c  c #633B25",
"v  c #6B3D25",
"b  c #643E2B",
"n  c #683B26",
"m  c #603E32",
"M  c #5A4135",
"N  c #56443B",
"B  c #5D433C",
"V  c #694126",
"C  c #65422B",
"Z  c #6E412A",
"A  c #74442A",
"S  c #76492E",
"D  c #78462A",
"F  c #694633",
"G  c #6E4933",
"H  c #634438",
"J  c #694A3A",
"K  c #754632",
"L  c #744A33",
"P  c #7C4D32",
"I  c #724D3A",
"U  c #7A4D3B",
"Y  c #71473B",
"T  c #7D533B",
"R  c #7E5235",
"E  c #5E4642",
"W  c #604741",
"Q  c #66524B",
"!  c #7A5343",
"~  c #795A4C",
"^  c #685854",
"/  c #7E5D51",
"(  c #7D5F5A",
")  c #725A51",
"_  c #7A635D",
"`  c #824C2F",
"'  c #824E32",
"]  c #835235",
"[  c #84553B",
"{  c #89563B",
"}  c #85593E",
"|  c #8B5A3D",
" . c #925C3F",
".. c #845A43",
"X. c #8B5C43",
"o. c #8C5E49",
"O. c #855845",
"+. c #925E43",
"@. c #855E54",
"#. c #8E6044",
"$. c #8E624C",
"%. c #936145",
"&. c #996446",
"*. c #94644B",
"=. c #99664C",
"-. c #95684E",
";. c #9B6A4E",
":. c #926C42",
">. c #8C6453",
",. c #8E6953",
"<. c #87655A",
"1. c #936551",
"2. c #9A6751",
"3. c #956A53",
"4. c #9C6C53",
"5. c #936D5B",
"6. c #9B6E5A",
"7. c #9D7055",
"8. c #9D725B",
"9. c #96715B",
"0. c #A26A4D",
"q. c #A0674A",
"w. c #A26D54",
"e. c #A86E54",
"r. c #A26F59",
"t. c #A37156",
"y. c #AB7256",
"u. c #A4745B",
"i. c #AB755C",
"p. c #A6785D",
"a. c #AC795E",
"s. c #B07155",
"d. c #B1765C",
"f. c #B37A5E",
"g. c #B87C5E",
"h. c #8F6D67",
"j. c #936F62",
"k. c #9C6F60",
"l. c #9C7462",
"z. c #987467",
"x. c #8D7D74",
"c. c #977672",
"v. c #A37662",
"b. c #AB7761",
"n. c #A57A63",
"m. c #AC7C63",
"M. c #A37A69",
"N. c #AC7E69",
"B. c #B07760",
"V. c #B37C63",
"C. c #B97D62",
"Z. c #B27E69",
"A. c #A27C70",
"S. c #B9805E",
"D. c #B4805F",
"F. c #948178",
"G. c #AE8066",
"H. c #AD826B",
"J. c #B38166",
"K. c #BB8265",
"L. c #B1816A",
"P. c #B2836D",
"I. c #B4846B",
"U. c #BB856B",
"Y. c #B5886E",
"T. c #BB896E",
"R. c #A68474",
"E. c #AD8371",
"W. c #AC897A",
"Q. c #A98776",
"!. c #B38671",
"~. c #B98770",
"^. c #B58A73",
"/. c #BB8C73",
"(. c #B68D7A",
"). c #BA8E79",
"_. c #BE9176",
"`. c #B5907C",
"'. c #BD927B",
"]. c #C28566",
"[. c #C18669",
"{. c #C3896B",
"}. c #C88B6A",
"|. c #C28D73",
" X c #C98F73",
".X c #C08F79",
"XX c #C29176",
"oX c #CB9275",
"OX c #C2947C",
"+X c #CA967A",
"@X c #C5987F",
"#X c #CE987E",
"$X c #D19C7F",
"%X c #BC9582",
"&X c #BE9884",
"*X c #BC9689",
"=X c #C29681",
"-X c #C49A84",
";X c #CA9C84",
":X c #C49C8C",
">X c #CA9F8B",
",X c #D29C81",
"<X c #CBA18C",
"1X c #D1A38E",
"2X c #CBA493",
"3X c #D2A592",
"4X c #D4AA93",
"5X c #D6B09B",
"6X c #E1B59D",
"7X c #DAB4A1",
/* pixels */
"U.i.y.m.m.N.!.Z.L.u.l.>.F L $.X.X.K v %.X.S ..$.8.l.8.3.*.-.p.3.*.m.m.p.m.u.4.4.3.t.V.V.L.N.m.o.4.V.i.4.3.*.!.z.,.p.n.6.9.3.n.Z.",
";.r.r.m.V.H.Z.Z.L.H.H.W.5.G L K K } O.K X.*.v.l.6.N.3.o.$.3.8.8.n.1.t.m.N.$.X.a.V.J.m.t.p.T.~.n.b.u.L P 0.u.3.^.k.! 3.n.8.9.N.r.",
"K w.V.V.L.H.Z.P.P.~.'.'./.8.3.8.m.I.H.1.n.P.N.N.v.3.n.!.8.$.o.*.2.4.*.4.3.v.6.;.=.-.t.m.t.J.J.u.V.H - 4 V } b :.H.@...m.N.v.u.>.",
"6.i.i.V.Z.L.L.Z..XP.$.T X.7.I.I.T.|.T.U.I.H.3.3.n.X.$.v.6.o.1.*.p.t.X.X.u.m.u.p.t.#.4.m.I.U.V.f.J # & & * 5 b c R 4.3.[ 8...3.M.",
"*.i.a.b.m.m.Z.Z.-.j q 5 4 t T J.U.U.K.K.C.n.%.*.4.3.[ p.p.8.4.[ %.2.t.-.o.*.-.X.X.2.X.w.J.T.i.j & # # & & * t Z n n X.$.U T v.^.",
"*.| X.v.N.N.I.4.s 4 3 - 3 4 4 [ U.[.[.K.C.m.3.n.i.6.L R P [ %.u.V.V.~.~.Z.N.m.L.P.~.~.U.J.K.U % # # # # & - 4 n c T 6.a.6.>.^.L.",
"p.p.1.8.N.m.m.I 4 < O + & - 3 w i.].}.[.U.L.H.t.B.m.v.l.v.1.o.V.T.U.U.V.I.T.U.I.T.T.XX|.J.U.l + # @ @ # & - 4 C ,.5.p.{./.m.T.~.",
"X.2.#.3.l.m.n.j - O O O O & - ; %.}.K.K.K.m.2.u.f.V.V.|.~././.V.B.V.V.V.I.p.u.u.m.T.|.|.J.+Xz O # O @ # & * 4 T @X!.T.oXw.X.T.U.",
"2.2.-.*.8.L.v.h # o o O o O * * U ].K.K.K.I.V.;.;.=.i.T.K.U.B.B.U.V.V.U.U.m.1.J.I.U.|.|.U.oXM o # @ @ @ % & 4 v K.|.T.[.8.r.U.U.",
"J.V.U.a.8.N.N.i o o O O @ # & $ G }.K.].f.p.T.i.m.I.V.T.T.U.T.U.K.U.V.b.V.L.b.i.T.|.~.J.U. Xl O # + @ # # & 3 e y.{.U.a.I..XT.m.",
"U.U.U.V.v.N.N.4 O @ @ # # % % + F }.K.C.f.-.[ a.V.K.U.U.U.U.U.U.V.B.B.B.V.m.Z.i.B.T.V.m.|.oXk o # + + # # % * s { %.+.a.I.U.L.p.",
"{.{.U.B.n.m.8.- % # # # # # % + f }.C.U.U.1.Y t.V.U.V.V.V.m.V.V.V.u.m.V.V.Z.Z.t.m.T.U.U.T.oXk + & # # # # % $ j U *.I.U.T./.n.p.",
" X{.[.T.N.m.5.* % # # # + # % + s [.U.U.K.a.u.g.C.C.V.I.I.I.V.U.m.w.i.V.y.I.U.I.U.T.~.U.K. Xk   o o o o o @ @ ..P.m.|.T..X~.~.P.",
"{.[.[.T.!.N.I + # # + + + o o X t ].K.C.C.v.o.&.K.C.y.m.I.b.m.V.u.w.w.i.u.m.r.V.J.T.~.U.J.T.M.( ( _ c.h.<.j.A.~.|..XU.V.-.-.U.V.",
"U.K.K.C.m.^.5.z 9 8 8 8 8 x E E >.].C.J.V.~.Z.u.i.i.i.Z.m.I.m.[ p.u.4.2.m.m.r.m.B.U..XB.V.T.oX,X#X#X$X+XXX.X+XXXI.m.I.n.6.9.3.V.",
"U.C.C.B.m.m./.).H.%X(.*X2X/. X XoX{.[.U.V.p.U.i.r.i.b.i.n.V.i.p.2.b.i.i.m.r.m.J.i.V.U.2.m.V.U.T.|. X{.XX@XXXXXT.t.I.~.H.N.!.L.b.",
"C.f.i.f.I.m.m.m.t.m.u.V.|.K.K.U.U.U.[.T.~.2.V.I.V.r.i.m.b.V.i.Z.b.i.a.B.Z.i.w.%.w.B.L.J.U.T.U.U.J.t.a.OX-XI.I.V.m.XX/.P.v.m.P.b.",
"i.y.C.{.U.n.n.m.m.m.B.B.K.C.J.V.V.V.V.U.|.B.a.B.C.K.U.Z.V.V.V.a.B.B.B.V.V.b.m.v.2.i.V.U.T.T.r.[ P X.I.m.Z.m.n.I.|.V./.~.P.P.V.i.",
"y.f.U.C.Z.Z.n.I.U.V.U.U.K.U.~.~.T.~./.I.U.4.f.B.f.B.V.B.V.B.i.C.B.y.B.i.y.B.m.V.u.w.B.V.m.J.L.1.3.3.m.I.I.I.6.U..X*.t.L.L.V.6.3.",
"U.[.f.i.m.I.i.U.[.V.B.{.U.U.U.~.XXOX.X{.U.r.B.V.C.f.f.i.=.;.y.w.=.*.%.i.4.=.*.u.m.i.i.a.m.V.U.OX~.L.I.T.I.u.n.u.m.E.6.2.n.L.v.8.",
"].f.f.V.m.V.C.C.B.V.f.C.C.C.V.V.V.U.K.C.V.B.w.i.*.w.i.w.n.4.B.m.w.u.3.4.6.v.i.i.i.i.i.m.u.*.B.I.V.V.I.J.m.p.p.4.u.I.I.b.m.I.m.v.",
"d.f.B.V.V.i.m.u.m.V.a.t.f.K.C.B.B.*.y.T.U.V.2.4.4.w.i.*.i.V.V.V.m.w.6.6.4.b.b.i.B.a.m.m.I.i.V.B.i.V.J.m.t.V.t.0.t.U.V.U.I.I.N.3.",
"K.C.U.U.U.U.m.X.J.K.V.i.f.V.K.K.U.n.w.C.K.U.p.a.B.B.B.V.B.V.B.B.i.B.b.b.U.V.i.V.C.C.V.V.B.i.J.T.B.a.J.b.[ { [ ] V.J.u.m.L.m.H.H.",
"f.f.f.B.B.B.I.a.y.V.V.i.i.i.f.V.K.T.J.V.K.K.r.r.V.V.V.f.C.e.e.0.0.C.C.d.V.C.B.a.f.f.f.V.i.B.U.C.i.f.t.t.n.m.L.6.U.V.2.2.w.u.i.b.",
"C.C.d.f.B.V.B.V.V.B.V.t.| w.C.C.K.C.U.C.K.f.b.u.C.V.d.g.C.;.{ ] `  .t.f.f.B.i.f.m.i.f.=.y.w.w.t.=.y.w.%.V.a.;.a.i.*...1.1.1.2.n.",
"g.d.f.f.f.V.f.y.C.t.2.I.V.f.K.C.K.K.V.t.f.C.C.K.C.i.d.f.y.] D D A A ` 0.i.f.B.0.y.i.a.v.w.t.%.2.-.] *.p.B.=.| %.[ X.4.m.L.8.o.[ ",
"s.s.y.i.i.f.f.f.f.i.m.V.C.C.C.g.C.[.C.=.y.C.C.f.f.y.y.C.w.v e 2 3 d v ' y.V.C.w.i.V.B.U.B.I.a.-.*.t.4.*.i.w.*.#.u.p.m.V.m.N.v.l.",
"d.d.d.f.B.f.d.C.t.i.V.K.f.C.C.C.d.;.V.%.%.C.C.f.C.f.y.0.4.h . X + t c P f.B.f.i.w.i.V.V.C.a.V.L.w.n.p.*.y.w.;.2.a.t.w.m.a.m.m.m.",
"d.d.d.f.f.f.f.V.V.B.K.C.f.g.g.C.C.%.*.V.B.e.d.d.f.y.y.=.P.p   . - 4 f K w.i.y.f.2.=.d.f.i.*.*.a.m.t.t.a.K.m.-.%.4.i.w.p.p.2.8.8.",
"s.y.y.d.f.f.B.B.V.B.y.i.i.y.i.f.y.B.w.y.i. .+.d.y.i.V.m.;X/ . o * 3 s [ ;.i.i.B.3.; d 0.C.V.;.=.a.n.4.| w.m.-.4.4.u.*.u.8.3.3.n.",
"i.y.i.a.a.a.t.4.=.%.0.f.B.C.B.f.g.V.a.m.i.*.P y.y.d.V.B.U.E.B r t l 5.4.] t.C.C.n.a w [ -.[ %.%.u.u.#.*.] t.m.u.;.2.| ] ;.t.4.8.",
"f.d.y.f.B.i.=.*.#...| q.f.g.C.d.d.y.i.i.B.m.P &.y.S.V.V.t.=X:XM.j.H.m.v.4.u.y.w.U.1.d w q * Z %.%.X.*.*.[ t.m.4.4.n.t.4.t.V.3.3.",
"y.y.q.&.2.i.I.J.m.3.m.*.%.0.f.f.y.i.w.t.t.I.2.O.=.y.d.B.V.p.U.).E.6.2.u.J.u.X.| u.I q 4 0 s 3.[ X.3.T ..3...} n.=.u.p.4.%.4.3.L ",
"0.w.i.t.m.n.m.m.^.2.*.V.*.=.i.w.=.t.m.a.-.i.m.+.%.0.g.V.V.m.i.L.*.o.t.u.a.i.2.%.| y 0 0 q v.'.u.u.~.m.6.3.T T 4.r.-.X.%.p.4.8.6.",
"y.w.f.C.f.g.C.J.m.V.w.t.| ;.m.w.i.m.a.u.t.t.u.w.*... .K.a.i.m.t.i.r.a.V.V.2.3.m.!.@.0 ; q p.I..XXXOXXXN.N.N.6.-.i.U.m.4.m.B.P.^.",
"f.i.d.C.f.C.C.J.%.%.a.J.%.P U G K X.T | %.*.[ n.+.;.y.C.f.f.a.i.f.C.C.S.U.i.~.V.t...0 J H P K.~.I.V..X.Xu.I.!.Z.y.B.U.V.B.i.i.V.",
"f.f.f.C.f.w.m.L.N.3.u.m.I.$.:   g b 2 L u.I.n.V.J.i.K.].[.[.C.a.d.y.K.g.i.o.i.w.A 3.R.:Xz.8.U.C.f.f.K.~.I.2.b.B.V.B.m.B.f.B.V.L.",
"V.~.U.I.I.n.!.I.U.~.U.i.i.I.M./ @.~ z.H.J.U.U.L.~.J.K.}.].K.U.K.K.C.y.y.a.U.i.L.3.8.;X-X).I.C.i.V.i.i.i.m.m.u.K.U.K.C.C.C.K.T.I.",
"I.H.J.P.H.H.P.I.m.+.+.;.p.=.w.oXT.~..Xm.m.J.a.w.m.J.g.y.g.].}.U.d.d.&.=.=.%.*.X.n.H./.~.U.K.C.K.f.y.T u C C T ;.g.C.C.f.g.g.K.V.",
"L.~.H.m.m.v.p.u.| ] P [ o.[ | V.J.f.V.V.I.U.T.a.4.C.K.y.i.K.y.y.%.*.I S %.*.4.t./.I.T.T. XK.U.U.u.T M - q s s n w.J.f.y.g.g.K.V.",
"u.G.H.n.H.H.u.[ V f a 3 q f V J./.V.I.).'.I.V.I.G.U.T.U.w.+. .[ G.H.).).OXXXT.U.V.V.f.U.V.d.}.J.m - = = * r j V P t.i.t.i.K.K.J.",
"p.p.m.n.H.8.P f > & & & & * 2 T +XXXT.^./.).T.Y.)./.T.T.U.m.;.{ ;.T.+XXXXX/.T.a.K.U.C.K.g.i.0.I & # # & # & r S v | U.V.f.U.U.U.",
"u.u.v.8.n.8.c ; - * > - - & * w X.J.XX).'.).I.'.'.).XX/././.u.| X.*.I./.I.I.U.I.Y.U.U.C.K.u.b 4 & * & & * & - V P P K.K.U.K.B.V.",
"p.m.m.u.H.8.q - - 3 3 - * * * 4 n +.XX!.^.).^.^.'.@X@X'.8.n.;XH.).t.*.;.-.X.u.;.i.t.K.K.f.P s 3 - * - - > 3 > w ] Z t.T.J.f.V.I.",
"m.m.p.8.n.n.r - 3 3 - * - * * 4 n ] _.'.'.%X&X'.!.'.).).=X%X^.).!.OXP.u.N.^.P.I.L.m.%.+.{ d 9 3 > - 3 3 3 3 3 q A v &.U.U.B.U.V.",
"a.u.3.4.p.Y.i $ 3 - * - > * - 3 c [ _.-X:X%X%X%X'.'.@X).@X<XE.3.m.L.I.I.'.<X-X-Xt.).n.P ] j r 4 - - 3 4 3 4 4 4 c A | D.V.V.I.I.",
"t.4.-.3.8.!.g + - * $ & * * - ; c X.^.-X-X&X:X&X'.^.).^.!.=X<X-X^.@Xu.=.u.'.).'.m.8.n.| ] j r 4 3 3 4 4 3 3 4 4 s S D &.I.U.T.U.",
";.-.-.3.3.7.a - * & # + & & * 3 b 3.'.&X-X'.(.'.'.^.P.^.^.!.8.H.).=X-Xn.4.@X/.).-X'.).H.n.H 4 4 3 3 4 4 3 3 4 4 t S A &.K.C.I.I.",
";.7.8.8.$.3.M 7 6 6 6 = + # < 7 H ..^.%X!.E.^.H.!.^.!.^.'.).v.l.^.).3X'.1.2.L.8.I.p.).@X4X/ : 4 3 3 3 3 3 1 3 3 q K S ' 0.0.t.H.",
"-.3.3.v.8.v.Q = , , 6 6 + = 7 , j 9.n.m.p.n.).'.!.^.H.!.!.`.-X&X^.(.).'.N.8.P.).;.t.'.;X;X<.3 3 3 3 3 3 - - : * q L c ' P ] u.n.",
"4.8.3.8.p.v.R.N 9 = @ , . # , o q 3.$.N.H.!.H.m.!.^.!.H.H.!.^.(.&X'.=X-X'.!.n.^.P.6.P.~.n.! 3 4 3 3 3 > - - - 4 j K c | n.o.u.m.",
"8.m.n.8.n.n.E.%XQ.F.x._ Q Q ^ Q ) `.H.n.m.n.H.u.v.n.'.!.(.^.(.'.`.!.).(.H.'.@X@X>X<X=X!.3.! u 9 8 3 - - - 3 9 h j L c L -X=X!.!.",
"m.t.t.m.Y.p.n.P.-X2X5X7X7X7X7X7X<X@X^.I.^.).)./.).n.H.H.^.=X(.!.H.!.N.=XH.u.'.>X-X2X3X3X6XW.i h M p z N W E ) ,.5.E.l.>.m.P.H.P.",
"p.u.n.G.a.m.n.u.H.H.(.).'.'.'.XX~./.I.n.m.I././._.I.u.n.n.m.N.I.H.m.N.^.).n.n.-X-X=X1X<X;X4X%XR.R.M.(.%X-X-X).@X;X=X).L.N.H.H.G.",
"t.4.u.u.m.m.I.Y.m.P.N.P.m.m.n.4.m.Y.I.p.u.J./.T.m.m.m.G.m.G.P.I.OXP.^.^.).H.8.m././.^.m.p.I.;X3X>X'.).).P.m.L.P.I.m.m.T.P.u.-.X.",
"a.u.p.m.m.m.J.J.I.^.L.m.~.I.P.T.u.u.a.I.J./.I.T./.P./.G.n.m.I.).).^.P.).^.v.8.u./.I.H.H.P./.I.@X'.n.H.m.m.J.J.L.I.T.T./.T.*...-.",
"m.a.a.Y.m.t.J.T.~.I.I.m.m.I.L.L.m.m.J./.J.a.a.m.m.I.Y.~.L.m.!.^.@X>X).'.-X@X/.P.P.~.'.'.)./.P.L.!.^.P.~.n.I.I.T.I.Y./.Y.^.=X'.n.",
"I.J.a.a.t.p.t.I.p.G.m.p.m.p.G.p.G.T./.J.m.m.m.m.I.L.m.Y.~.'.=X^.^.).'.).OX'.P.m.m.G.P.!.H.P.!.L.I.^.I.L.~.I.L.~.~.T.Y.~.I.P.).7.",
"T.J.n.p.m.m.a.I.7.7.P.I.I.Y.L.G.G.J.m.G.p.u.I.I.V.m.L.I.m.I.I.^.!.^.P.).m.a.m.G.m.I.I.P.P.!.).I.G.G.V.I.u.m.T.6.n.XX/.T.I.I.G.H.",
"J.J.n.a.J.m.u.4.3.m.I.I./.I.m.G.p.i.a.u.m.J.I.m.J.I.I.^.^.L.^.L.L.I.m.H.@X/.G.I.I.I.I.).L.m.)./.I.U.V.V.I.J.T.k.p.T.~.U.I.I.m.P.",
"u.p.u.t.a.p.4.4.p.u.p.m.J.T.I.m.p.4.7.p.m.J.m.G.I.G.n.m.Y.~.I.^.Y.Y./.P./._.Y.G.p.n.I.~.~././.).^.Y.m.p.m.J.J.L.L.I.I.I.G.m.m.m.",
";.*.p.u.;.;.;.t.4.7.p.i.a.I.T.J.u.t.7.u.G.J.I.J.m.m.n.G.7.~.@X^.^.'._._.Y././.I.m.I.n.4.P.~./.XX/.P.I.n.m.V.U.I.I.I.i.L.I.L.m.I.",
"t.;.t.4.-.X.;.i.;.4.u.t.I.J.I.Y.a.p.p.u.G.m.p.a.m.L.m.u.n.G.^.'.H.^.'.-XXXY.Y.~.L.n.n.p.t.m.I._.Y.~.I.n.L.m.i.X.m.J.U.I.I.t.t.u.",
"%.t.t.4.4.o.3.4.7.a.i.a.T.J.G.T./.P.n.n.m.m.m.m.m.I.^.3.n.m.H.P.-X-X@X@X'.^.u.I.XXI.Y.m.m.T.G.^.I..XV.L.L.J.L.m.m.V.J.I.3.X.1.K "
};
